<?xml version="1.0" encoding="utf-8"?>
<svg viewBox="1.772 1.6580000000000013 212.456 225.02" width="612pt" height="648.192pt" xmlns="http://www.w3.org/2000/svg" xmlns:xlink="http://www.w3.org/1999/xlink">
  <g id="surface1" transform="matrix(1, 0, 0, 1, -189.583896, -388.912787)">
    <path style="fill:none;stroke-width:1.76443;stroke-linecap:butt;stroke-linejoin:miter;stroke:rgb(0%,0%,0%);stroke-opacity:1;stroke-miterlimit:10;" d="M 2688.515625 2710.46875 L 2829.648438 2851.601562 L 2970.820312 2710.46875 L 2829.648438 2569.296875 Z M 2688.515625 2710.46875 " transform="matrix(0.1,0,0,-0.1,0,792)"/>
    <g clip-path="url(#clip16)" clip-rule="nonzero">
      <path style="fill:none;stroke-width:1.76443;stroke-linecap:butt;stroke-linejoin:miter;stroke:rgb(0%,0%,0%);stroke-opacity:1;stroke-miterlimit:10;" d="M 1982.734375 2851.601562 L 2123.90625 2992.773438 L 2265.039062 2851.601562 L 2123.90625 2710.46875 Z M 1982.734375 2851.601562 " transform="matrix(0.1,0,0,-0.1,0,792)"/>
    </g>
    <path style="fill:none;stroke-width:1.76443;stroke-linecap:butt;stroke-linejoin:miter;stroke:rgb(0%,0%,0%);stroke-opacity:1;stroke-miterlimit:10;" d="M 2265.039062 3133.945312 L 2406.210938 3275.078125 L 2547.34375 3133.945312 L 2406.210938 2992.773438 Z M 2265.039062 3133.945312 " transform="matrix(0.1,0,0,-0.1,0,792)"/>
    <path style="fill:none;stroke-width:1.76443;stroke-linecap:butt;stroke-linejoin:miter;stroke:rgb(0%,0%,0%);stroke-opacity:1;stroke-miterlimit:10;" d="M 2406.210938 3275.078125 L 2547.34375 3416.210938 L 2688.515625 3275.078125 L 2547.34375 3133.945312 Z M 2406.210938 3275.078125 " transform="matrix(0.1,0,0,-0.1,0,792)"/>
    <path style="fill:none;stroke-width:1.76443;stroke-linecap:butt;stroke-linejoin:miter;stroke:rgb(0%,0%,0%);stroke-opacity:1;stroke-miterlimit:10;" d="M 2547.34375 3416.210938 L 2688.515625 3557.382812 L 2829.648438 3416.210938 L 2688.515625 3275.078125 Z M 2547.34375 3416.210938 " transform="matrix(0.1,0,0,-0.1,0,792)"/>
    <path style="fill:none;stroke-width:1.76443;stroke-linecap:butt;stroke-linejoin:miter;stroke:rgb(0%,0%,0%);stroke-opacity:1;stroke-miterlimit:10;" d="M 2688.515625 3557.382812 L 2829.648438 3698.554688 L 2970.820312 3557.382812 L 2829.648438 3416.210938 Z M 2688.515625 3557.382812 " transform="matrix(0.1,0,0,-0.1,0,792)"/>
    <path style="fill:none;stroke-width:1.76443;stroke-linecap:butt;stroke-linejoin:miter;stroke:rgb(0%,0%,0%);stroke-opacity:1;stroke-miterlimit:10;" d="M 2829.648438 3698.554688 L 2970.820312 3839.6875 L 3111.953125 3698.554688 L 2970.820312 3557.382812 Z M 2829.648438 3698.554688 " transform="matrix(0.1,0,0,-0.1,0,792)"/>
    <path style="fill:none;stroke-width:1.76443;stroke-linecap:butt;stroke-linejoin:miter;stroke:rgb(0%,0%,0%);stroke-opacity:1;stroke-miterlimit:10;" d="M 2265.039062 2569.296875 L 2406.210938 2710.46875 L 2547.34375 2569.296875 L 2406.210938 2428.164062 Z M 2265.039062 2569.296875 " transform="matrix(0.1,0,0,-0.1,0,792)"/>
    <path style="fill:none;stroke-width:1.76443;stroke-linecap:butt;stroke-linejoin:miter;stroke:rgb(0%,0%,0%);stroke-opacity:1;stroke-miterlimit:10;" d="M 2406.210938 2710.46875 L 2547.34375 2851.601562 L 2688.515625 2710.46875 L 2547.34375 2569.296875 Z M 2406.210938 2710.46875 " transform="matrix(0.1,0,0,-0.1,0,792)"/>
    <path style="fill:none;stroke-width:1.76443;stroke-linecap:butt;stroke-linejoin:miter;stroke:rgb(0%,0%,0%);stroke-opacity:1;stroke-miterlimit:10;" d="M 2547.34375 2851.601562 L 2688.515625 2992.773438 L 2829.648438 2851.601562 L 2688.515625 2710.46875 Z M 2547.34375 2851.601562 " transform="matrix(0.1,0,0,-0.1,0,792)"/>
    <path style="fill:none;stroke-width:1.76443;stroke-linecap:butt;stroke-linejoin:miter;stroke:rgb(0%,0%,0%);stroke-opacity:1;stroke-miterlimit:10;" d="M 2688.515625 2992.773438 L 2829.648438 3133.945312 L 2970.820312 2992.773438 L 2829.648438 2851.601562 Z M 2688.515625 2992.773438 " transform="matrix(0.1,0,0,-0.1,0,792)"/>
    <path style="fill:none;stroke-width:1.76443;stroke-linecap:butt;stroke-linejoin:miter;stroke:rgb(0%,0%,0%);stroke-opacity:1;stroke-miterlimit:10;" d="M 2829.648438 3133.945312 L 2970.820312 3275.078125 L 3111.953125 3133.945312 L 2970.820312 2992.773438 Z M 2829.648438 3133.945312 " transform="matrix(0.1,0,0,-0.1,0,792)"/>
    <path style="fill:none;stroke-width:1.76443;stroke-linecap:butt;stroke-linejoin:miter;stroke:rgb(0%,0%,0%);stroke-opacity:1;stroke-miterlimit:10;" d="M 2970.820312 3275.078125 L 3111.953125 3416.210938 L 3253.125 3275.078125 L 3111.953125 3133.945312 Z M 2970.820312 3275.078125 " transform="matrix(0.1,0,0,-0.1,0,792)"/>
    <path style="fill:none;stroke-width:1.76443;stroke-linecap:butt;stroke-linejoin:miter;stroke:rgb(0%,0%,0%);stroke-opacity:1;stroke-miterlimit:10;" d="M 3111.953125 3416.210938 L 3253.125 3557.382812 L 3394.296875 3416.210938 L 3253.125 3275.078125 Z M 3111.953125 3416.210938 " transform="matrix(0.1,0,0,-0.1,0,792)"/>
    <path style="fill:none;stroke-width:1.76443;stroke-linecap:butt;stroke-linejoin:miter;stroke:rgb(0%,0%,0%);stroke-opacity:1;stroke-miterlimit:10;" d="M 2123.90625 2710.46875 L 2265.039062 2851.601562 L 2406.210938 2710.46875 L 2265.039062 2569.296875 Z M 2123.90625 2710.46875 " transform="matrix(0.1,0,0,-0.1,0,792)"/>
    <path style="fill:none;stroke-width:1.76443;stroke-linecap:butt;stroke-linejoin:miter;stroke:rgb(0%,0%,0%);stroke-opacity:1;stroke-miterlimit:10;" d="M 2265.039062 2851.601562 L 2406.210938 2992.773438 L 2547.34375 2851.601562 L 2406.210938 2710.46875 Z M 2265.039062 2851.601562 " transform="matrix(0.1,0,0,-0.1,0,792)"/>
    <path style="fill:none;stroke-width:1.76443;stroke-linecap:butt;stroke-linejoin:miter;stroke:rgb(0%,0%,0%);stroke-opacity:1;stroke-miterlimit:10;" d="M 2406.210938 2992.773438 L 2547.34375 3133.945312 L 2688.515625 2992.773438 L 2547.34375 2851.601562 Z M 2406.210938 2992.773438 " transform="matrix(0.1,0,0,-0.1,0,792)"/>
    <path style="fill:none;stroke-width:1.76443;stroke-linecap:butt;stroke-linejoin:miter;stroke:rgb(0%,0%,0%);stroke-opacity:1;stroke-miterlimit:10;" d="M 2547.34375 3133.945312 L 2688.515625 3275.078125 L 2829.648438 3133.945312 L 2688.515625 2992.773438 Z M 2547.34375 3133.945312 " transform="matrix(0.1,0,0,-0.1,0,792)"/>
    <path style="fill:none;stroke-width:1.76443;stroke-linecap:butt;stroke-linejoin:miter;stroke:rgb(0%,0%,0%);stroke-opacity:1;stroke-miterlimit:10;" d="M 2688.515625 3275.078125 L 2829.648438 3416.210938 L 2970.820312 3275.078125 L 2829.648438 3133.945312 Z M 2688.515625 3275.078125 " transform="matrix(0.1,0,0,-0.1,0,792)"/>
    <path style="fill:none;stroke-width:1.76443;stroke-linecap:butt;stroke-linejoin:miter;stroke:rgb(0%,0%,0%);stroke-opacity:1;stroke-miterlimit:10;" d="M 2829.648438 3416.210938 L 2970.820312 3557.382812 L 3111.953125 3416.210938 L 2970.820312 3275.078125 Z M 2829.648438 3416.210938 " transform="matrix(0.1,0,0,-0.1,0,792)"/>
    <path style="fill:none;stroke-width:1.76443;stroke-linecap:butt;stroke-linejoin:miter;stroke:rgb(0%,0%,0%);stroke-opacity:1;stroke-miterlimit:10;" d="M 2970.820312 3557.382812 L 3111.953125 3698.554688 L 3253.125 3557.382812 L 3111.953125 3416.210938 Z M 2970.820312 3557.382812 " transform="matrix(0.1,0,0,-0.1,0,792)"/>
    <path style="fill:none;stroke-width:1.76443;stroke-linecap:butt;stroke-linejoin:miter;stroke:rgb(0%,0%,0%);stroke-opacity:1;stroke-miterlimit:10;" d="M 2406.210938 2428.164062 L 2547.34375 2569.296875 L 2688.515625 2428.164062 L 2547.34375 2286.992188 Z M 2406.210938 2428.164062 " transform="matrix(0.1,0,0,-0.1,0,792)"/>
    <path style="fill:none;stroke-width:1.76443;stroke-linecap:butt;stroke-linejoin:miter;stroke:rgb(0%,0%,0%);stroke-opacity:1;stroke-miterlimit:10;" d="M 2547.34375 2569.296875 L 2688.515625 2710.46875 L 2829.648438 2569.296875 L 2688.515625 2428.164062 Z M 2547.34375 2569.296875 " transform="matrix(0.1,0,0,-0.1,0,792)"/>
    <path style="fill:none;stroke-width:1.76443;stroke-linecap:butt;stroke-linejoin:miter;stroke:rgb(0%,0%,0%);stroke-opacity:1;stroke-miterlimit:10;" d="M 2829.648438 2851.601562 L 2970.820312 2992.773438 L 3111.953125 2851.601562 L 2970.820312 2710.46875 Z M 2829.648438 2851.601562 " transform="matrix(0.1,0,0,-0.1,0,792)"/>
    <path style="fill:none;stroke-width:1.76443;stroke-linecap:butt;stroke-linejoin:miter;stroke:rgb(0%,0%,0%);stroke-opacity:1;stroke-miterlimit:10;" d="M 3111.953125 3133.945312 L 3253.125 3275.078125 L 3394.296875 3133.945312 L 3253.125 2992.773438 Z M 3111.953125 3133.945312 " transform="matrix(0.1,0,0,-0.1,0,792)"/>
    <path style="fill:none;stroke-width:1.76443;stroke-linecap:butt;stroke-linejoin:miter;stroke:rgb(0%,0%,0%);stroke-opacity:1;stroke-miterlimit:10;" d="M 3253.125 3275.078125 L 3394.296875 3416.210938 L 3535.429688 3275.078125 L 3394.296875 3133.945312 Z M 3253.125 3275.078125 " transform="matrix(0.1,0,0,-0.1,0,792)"/>
    <path style="fill:none;stroke-width:1.76443;stroke-linecap:butt;stroke-linejoin:miter;stroke:rgb(0%,0%,0%);stroke-opacity:1;stroke-miterlimit:10;" d="M 2547.34375 2286.992188 L 2688.515625 2428.164062 L 2829.648438 2286.992188 L 2688.515625 2145.859375 Z M 2547.34375 2286.992188 " transform="matrix(0.1,0,0,-0.1,0,792)"/>
    <path style="fill:none;stroke-width:1.76443;stroke-linecap:butt;stroke-linejoin:miter;stroke:rgb(0%,0%,0%);stroke-opacity:1;stroke-miterlimit:10;" d="M 2688.515625 2428.164062 L 2829.648438 2569.296875 L 2970.820312 2428.164062 L 2829.648438 2286.992188 Z M 2688.515625 2428.164062 " transform="matrix(0.1,0,0,-0.1,0,792)"/>
    <path style="fill:none;stroke-width:1.76443;stroke-linecap:butt;stroke-linejoin:miter;stroke:rgb(0%,0%,0%);stroke-opacity:1;stroke-miterlimit:10;" d="M 2829.648438 2569.296875 L 2970.820312 2710.46875 L 3111.953125 2569.296875 L 2970.820312 2428.164062 Z M 2829.648438 2569.296875 " transform="matrix(0.1,0,0,-0.1,0,792)"/>
    <path style="fill:none;stroke-width:1.76443;stroke-linecap:butt;stroke-linejoin:miter;stroke:rgb(0%,0%,0%);stroke-opacity:1;stroke-miterlimit:10;" d="M 2970.820312 2710.46875 L 3111.953125 2851.601562 L 3253.125 2710.46875 L 3111.953125 2569.296875 Z M 2970.820312 2710.46875 " transform="matrix(0.1,0,0,-0.1,0,792)"/>
    <path style="fill:none;stroke-width:1.76443;stroke-linecap:butt;stroke-linejoin:miter;stroke:rgb(0%,0%,0%);stroke-opacity:1;stroke-miterlimit:10;" d="M 3111.953125 2851.601562 L 3253.125 2992.773438 L 3394.296875 2851.601562 L 3253.125 2710.46875 Z M 3111.953125 2851.601562 " transform="matrix(0.1,0,0,-0.1,0,792)"/>
    <path style="fill:none;stroke-width:1.76443;stroke-linecap:butt;stroke-linejoin:miter;stroke:rgb(0%,0%,0%);stroke-opacity:1;stroke-miterlimit:10;" d="M 3253.125 2992.773438 L 3394.296875 3133.945312 L 3535.429688 2992.773438 L 3394.296875 2851.601562 Z M 3253.125 2992.773438 " transform="matrix(0.1,0,0,-0.1,0,792)"/>
    <path style="fill:none;stroke-width:1.76443;stroke-linecap:butt;stroke-linejoin:miter;stroke:rgb(0%,0%,0%);stroke-opacity:1;stroke-miterlimit:10;" d="M 3394.296875 3133.945312 L 3535.429688 3275.078125 L 3676.5625 3133.945312 L 3535.429688 2992.773438 Z M 3394.296875 3133.945312 " transform="matrix(0.1,0,0,-0.1,0,792)"/>
    <path style="fill:none;stroke-width:1.76443;stroke-linecap:butt;stroke-linejoin:miter;stroke:rgb(0%,0%,0%);stroke-opacity:1;stroke-miterlimit:10;" d="M 2688.515625 2145.859375 L 2829.648438 2286.992188 L 2970.820312 2145.859375 L 2829.648438 2004.6875 Z M 2688.515625 2145.859375 " transform="matrix(0.1,0,0,-0.1,0,792)"/>
    <path style="fill:none;stroke-width:1.76443;stroke-linecap:butt;stroke-linejoin:miter;stroke:rgb(0%,0%,0%);stroke-opacity:1;stroke-miterlimit:10;" d="M 2829.648438 2286.992188 L 2970.820312 2428.164062 L 3111.953125 2286.992188 L 2970.820312 2145.859375 Z M 2829.648438 2286.992188 " transform="matrix(0.1,0,0,-0.1,0,792)"/>
    <path style="fill:none;stroke-width:1.76443;stroke-linecap:butt;stroke-linejoin:miter;stroke:rgb(0%,0%,0%);stroke-opacity:1;stroke-miterlimit:10;" d="M 2970.820312 2428.164062 L 3111.953125 2569.296875 L 3253.125 2428.164062 L 3111.953125 2286.992188 Z M 2970.820312 2428.164062 " transform="matrix(0.1,0,0,-0.1,0,792)"/>
    <path style="fill:none;stroke-width:1.76443;stroke-linecap:butt;stroke-linejoin:miter;stroke:rgb(0%,0%,0%);stroke-opacity:1;stroke-miterlimit:10;" d="M 3111.953125 2569.296875 L 3253.125 2710.46875 L 3394.296875 2569.296875 L 3253.125 2428.164062 Z M 3111.953125 2569.296875 " transform="matrix(0.1,0,0,-0.1,0,792)"/>
    <path style="fill:none;stroke-width:1.76443;stroke-linecap:butt;stroke-linejoin:miter;stroke:rgb(0%,0%,0%);stroke-opacity:1;stroke-miterlimit:10;" d="M 3253.125 2710.46875 L 3394.296875 2851.601562 L 3535.429688 2710.46875 L 3394.296875 2569.296875 Z M 3253.125 2710.46875 " transform="matrix(0.1,0,0,-0.1,0,792)"/>
    <path style="fill:none;stroke-width:1.76443;stroke-linecap:butt;stroke-linejoin:miter;stroke:rgb(0%,0%,0%);stroke-opacity:1;stroke-miterlimit:10;" d="M 3394.296875 2851.601562 L 3535.429688 2992.773438 L 3676.5625 2851.601562 L 3535.429688 2710.46875 Z M 3394.296875 2851.601562 " transform="matrix(0.1,0,0,-0.1,0,792)"/>
    <path style="fill:none;stroke-width:1.76443;stroke-linecap:butt;stroke-linejoin:miter;stroke:rgb(0%,0%,0%);stroke-opacity:1;stroke-miterlimit:10;" d="M 3535.429688 2992.773438 L 3676.5625 3133.945312 L 3817.734375 2992.773438 L 3676.5625 2851.601562 Z M 3535.429688 2992.773438 " transform="matrix(0.1,0,0,-0.1,0,792)"/>
    <g clip-path="url(#clip17)" clip-rule="nonzero">
      <path style="fill:none;stroke-width:1.76443;stroke-linecap:butt;stroke-linejoin:miter;stroke:rgb(0%,0%,0%);stroke-opacity:1;stroke-miterlimit:10;" d="M 2829.648438 2004.6875 L 2970.820312 2145.859375 L 3111.953125 2004.6875 L 2970.820312 1863.554688 Z M 2829.648438 2004.6875 " transform="matrix(0.1,0,0,-0.1,0,792)"/>
    </g>
    <path style="fill:none;stroke-width:1.76443;stroke-linecap:butt;stroke-linejoin:miter;stroke:rgb(0%,0%,0%);stroke-opacity:1;stroke-miterlimit:10;" d="M 2970.820312 2145.859375 L 3111.953125 2286.992188 L 3253.125 2145.859375 L 3111.953125 2004.6875 Z M 2970.820312 2145.859375 " transform="matrix(0.1,0,0,-0.1,0,792)"/>
    <path style="fill:none;stroke-width:1.76443;stroke-linecap:butt;stroke-linejoin:miter;stroke:rgb(0%,0%,0%);stroke-opacity:1;stroke-miterlimit:10;" d="M 3111.953125 2286.992188 L 3253.125 2428.164062 L 3394.296875 2286.992188 L 3253.125 2145.859375 Z M 3111.953125 2286.992188 " transform="matrix(0.1,0,0,-0.1,0,792)"/>
    <path style="fill:none;stroke-width:1.76443;stroke-linecap:butt;stroke-linejoin:miter;stroke:rgb(0%,0%,0%);stroke-opacity:1;stroke-miterlimit:10;" d="M 3253.125 2428.164062 L 3394.296875 2569.296875 L 3535.429688 2428.164062 L 3394.296875 2286.992188 Z M 3253.125 2428.164062 " transform="matrix(0.1,0,0,-0.1,0,792)"/>
    <path style="fill:none;stroke-width:1.76443;stroke-linecap:butt;stroke-linejoin:miter;stroke:rgb(0%,0%,0%);stroke-opacity:1;stroke-miterlimit:10;" d="M 3394.296875 2569.296875 L 3535.429688 2710.46875 L 3676.5625 2569.296875 L 3535.429688 2428.164062 Z M 3394.296875 2569.296875 " transform="matrix(0.1,0,0,-0.1,0,792)"/>
    <path style="fill:none;stroke-width:1.76443;stroke-linecap:butt;stroke-linejoin:miter;stroke:rgb(0%,0%,0%);stroke-opacity:1;stroke-miterlimit:10;" d="M 3535.429688 2710.46875 L 3676.5625 2851.601562 L 3817.734375 2710.46875 L 3676.5625 2569.296875 Z M 3535.429688 2710.46875 " transform="matrix(0.1,0,0,-0.1,0,792)"/>
    <g clip-path="url(#clip18)" clip-rule="nonzero">
      <path style="fill:none;stroke-width:1.76443;stroke-linecap:butt;stroke-linejoin:miter;stroke:rgb(0%,0%,0%);stroke-opacity:1;stroke-miterlimit:10;" d="M 3676.5625 2851.601562 L 3817.734375 2992.773438 L 3958.90625 2851.601562 L 3817.734375 2710.46875 Z M 3676.5625 2851.601562 " transform="matrix(0.1,0,0,-0.1,0,792)"/>
    </g>
    <path style="fill:none;stroke-width:1.76443;stroke-linecap:butt;stroke-linejoin:miter;stroke:rgb(0%,0%,0%);stroke-opacity:1;stroke-miterlimit:10;" d="M 2970.820312 2992.773438 L 3111.953125 3133.945312 L 3253.125 2992.773438 L 3111.953125 2851.601562 Z M 2970.820312 2992.773438 " transform="matrix(0.1,0,0,-0.1,0,792)"/>
    <path style="fill:none;stroke-width:1.76443;stroke-linecap:butt;stroke-linejoin:miter;stroke:rgb(0%,0%,0%);stroke-opacity:1;stroke-miterlimit:10;" d="M 2123.90625 2992.773438 L 2265.039062 3133.945312 L 2406.210938 2992.773438 L 2265.039062 2851.601562 Z M 2123.90625 2992.773438 " transform="matrix(0.1,0,0,-0.1,0,792)"/>
    <g style="fill:rgb(0%,0%,0%);fill-opacity:1;">
      <use transform="matrix(1, 0, 0, 1, 236.38499450683594, 538.9509887695312)" xlink:href="#glyph4-1"/>
    </g>
    <path style=" stroke:none;fill-rule:evenodd;fill:rgb(69.921875%,69.921875%,69.921875%);fill-opacity:1;" d="M 254.734375 429.203125 L 268.851562 415.089844 L 282.964844 429.203125 L 268.851562 443.320312 L 254.734375 429.203125 "/>
    <path style="fill:none;stroke-width:1.76443;stroke-linecap:butt;stroke-linejoin:miter;stroke:rgb(0%,0%,0%);stroke-opacity:1;stroke-miterlimit:10;" d="M 2547.34375 3627.96875 L 2688.515625 3769.101562 L 2829.648438 3627.96875 L 2688.515625 3486.796875 Z M 2547.34375 3627.96875 " transform="matrix(0.1,0,0,-0.1,0,792)"/>
    <path style=" stroke:none;fill-rule:evenodd;fill:rgb(69.921875%,69.921875%,69.921875%);fill-opacity:1;" d="M 254.734375 429.203125 L 254.734375 450.378906 L 268.851562 464.492188 L 268.851562 443.320312 L 254.734375 429.203125 "/>
    <path style="fill:none;stroke-width:1.76443;stroke-linecap:butt;stroke-linejoin:miter;stroke:rgb(0%,0%,0%);stroke-opacity:1;stroke-miterlimit:10;" d="M 2547.34375 3627.96875 L 2547.34375 3416.210938 L 2688.515625 3275.078125 L 2688.515625 3486.796875 Z M 2547.34375 3627.96875 " transform="matrix(0.1,0,0,-0.1,0,792)"/>
    <path style=" stroke:none;fill-rule:evenodd;fill:rgb(69.921875%,69.921875%,69.921875%);fill-opacity:1;" d="M 282.964844 429.203125 L 282.964844 450.378906 L 268.851562 464.492188 L 268.851562 443.320312 L 282.964844 429.203125 "/>
    <path style="fill:none;stroke-width:1.76443;stroke-linecap:butt;stroke-linejoin:miter;stroke:rgb(0%,0%,0%);stroke-opacity:1;stroke-miterlimit:10;" d="M 2829.648438 3627.96875 L 2829.648438 3416.210938 L 2688.515625 3275.078125 L 2688.515625 3486.796875 Z M 2829.648438 3627.96875 " transform="matrix(0.1,0,0,-0.1,0,792)"/>
    <g clip-path="url(#clip19)" clip-rule="nonzero">
      <path style=" stroke:none;fill-rule:evenodd;fill:rgb(69.921875%,69.921875%,69.921875%);fill-opacity:1;" d="M 297.082031 415.089844 L 311.195312 400.972656 L 325.3125 415.089844 L 311.195312 429.203125 L 297.082031 415.089844 "/>
    </g>
    <g clip-path="url(#clip20)" clip-rule="nonzero">
      <path style="fill:none;stroke-width:1.76443;stroke-linecap:butt;stroke-linejoin:miter;stroke:rgb(0%,0%,0%);stroke-opacity:1;stroke-miterlimit:10;" d="M 2970.820312 3769.101562 L 3111.953125 3910.273438 L 3253.125 3769.101562 L 3111.953125 3627.96875 Z M 2970.820312 3769.101562 " transform="matrix(0.1,0,0,-0.1,0,792)"/>
    </g>
    <path style=" stroke:none;fill-rule:evenodd;fill:rgb(69.921875%,69.921875%,69.921875%);fill-opacity:1;" d="M 297.082031 415.089844 L 297.082031 436.261719 L 311.195312 450.378906 L 311.195312 429.203125 L 297.082031 415.089844 "/>
    <path style="fill:none;stroke-width:1.76443;stroke-linecap:butt;stroke-linejoin:miter;stroke:rgb(0%,0%,0%);stroke-opacity:1;stroke-miterlimit:10;" d="M 2970.820312 3769.101562 L 2970.820312 3557.382812 L 3111.953125 3416.210938 L 3111.953125 3627.96875 Z M 2970.820312 3769.101562 " transform="matrix(0.1,0,0,-0.1,0,792)"/>
    <path style=" stroke:none;fill-rule:evenodd;fill:rgb(69.921875%,69.921875%,69.921875%);fill-opacity:1;" d="M 325.3125 415.089844 L 325.3125 436.261719 L 311.195312 450.378906 L 311.195312 429.203125 L 325.3125 415.089844 "/>
    <path style="fill:none;stroke-width:1.76443;stroke-linecap:butt;stroke-linejoin:miter;stroke:rgb(0%,0%,0%);stroke-opacity:1;stroke-miterlimit:10;" d="M 3253.125 3769.101562 L 3253.125 3557.382812 L 3111.953125 3416.210938 L 3111.953125 3627.96875 Z M 3253.125 3769.101562 " transform="matrix(0.1,0,0,-0.1,0,792)"/>
    <path style=" stroke:none;fill-rule:evenodd;fill:rgb(69.921875%,69.921875%,69.921875%);fill-opacity:1;" d="M 297.082031 528.011719 L 311.195312 513.894531 L 325.3125 528.011719 L 311.195312 542.128906 L 297.082031 528.011719 "/>
    <path style="fill:none;stroke-width:1.76443;stroke-linecap:butt;stroke-linejoin:miter;stroke:rgb(0%,0%,0%);stroke-opacity:1;stroke-miterlimit:10;" d="M 2970.820312 2639.882812 L 3111.953125 2781.054688 L 3253.125 2639.882812 L 3111.953125 2498.710938 Z M 2970.820312 2639.882812 " transform="matrix(0.1,0,0,-0.1,0,792)"/>
    <path style=" stroke:none;fill-rule:evenodd;fill:rgb(69.921875%,69.921875%,69.921875%);fill-opacity:1;" d="M 297.082031 528.011719 L 297.082031 549.183594 L 311.195312 563.300781 L 311.195312 542.128906 L 297.082031 528.011719 "/>
    <path style="fill:none;stroke-width:1.76443;stroke-linecap:butt;stroke-linejoin:miter;stroke:rgb(0%,0%,0%);stroke-opacity:1;stroke-miterlimit:10;" d="M 2970.820312 2639.882812 L 2970.820312 2428.164062 L 3111.953125 2286.992188 L 3111.953125 2498.710938 Z M 2970.820312 2639.882812 " transform="matrix(0.1,0,0,-0.1,0,792)"/>
    <path style=" stroke:none;fill-rule:evenodd;fill:rgb(69.921875%,69.921875%,69.921875%);fill-opacity:1;" d="M 325.3125 528.011719 L 325.3125 549.183594 L 311.195312 563.300781 L 311.195312 542.128906 L 325.3125 528.011719 "/>
    <path style="fill:none;stroke-width:1.76443;stroke-linecap:butt;stroke-linejoin:miter;stroke:rgb(0%,0%,0%);stroke-opacity:1;stroke-miterlimit:10;" d="M 3253.125 2639.882812 L 3253.125 2428.164062 L 3111.953125 2286.992188 L 3111.953125 2498.710938 Z M 3253.125 2639.882812 " transform="matrix(0.1,0,0,-0.1,0,792)"/>
    <path style=" stroke:none;fill-rule:evenodd;fill:rgb(69.921875%,69.921875%,69.921875%);fill-opacity:1;" d="M 268.851562 528.011719 L 282.964844 513.894531 L 297.082031 528.011719 L 282.964844 542.128906 L 268.851562 528.011719 "/>
    <path style="fill:none;stroke-width:1.76443;stroke-linecap:butt;stroke-linejoin:miter;stroke:rgb(0%,0%,0%);stroke-opacity:1;stroke-miterlimit:10;" d="M 2688.515625 2639.882812 L 2829.648438 2781.054688 L 2970.820312 2639.882812 L 2829.648438 2498.710938 Z M 2688.515625 2639.882812 " transform="matrix(0.1,0,0,-0.1,0,792)"/>
    <path style=" stroke:none;fill-rule:evenodd;fill:rgb(69.921875%,69.921875%,69.921875%);fill-opacity:1;" d="M 268.851562 528.011719 L 268.851562 549.183594 L 282.964844 563.300781 L 282.964844 542.128906 L 268.851562 528.011719 "/>
    <path style="fill:none;stroke-width:1.76443;stroke-linecap:butt;stroke-linejoin:miter;stroke:rgb(0%,0%,0%);stroke-opacity:1;stroke-miterlimit:10;" d="M 2688.515625 2639.882812 L 2688.515625 2428.164062 L 2829.648438 2286.992188 L 2829.648438 2498.710938 Z M 2688.515625 2639.882812 " transform="matrix(0.1,0,0,-0.1,0,792)"/>
    <path style=" stroke:none;fill-rule:evenodd;fill:rgb(69.921875%,69.921875%,69.921875%);fill-opacity:1;" d="M 297.082031 528.011719 L 297.082031 549.183594 L 282.964844 563.300781 L 282.964844 542.128906 L 297.082031 528.011719 "/>
    <path style="fill:none;stroke-width:1.76443;stroke-linecap:butt;stroke-linejoin:miter;stroke:rgb(0%,0%,0%);stroke-opacity:1;stroke-miterlimit:10;" d="M 2970.820312 2639.882812 L 2970.820312 2428.164062 L 2829.648438 2286.992188 L 2829.648438 2498.710938 Z M 2970.820312 2639.882812 " transform="matrix(0.1,0,0,-0.1,0,792)"/>
    <path style=" stroke:none;fill-rule:evenodd;fill:rgb(69.921875%,69.921875%,69.921875%);fill-opacity:1;" d="M 212.390625 499.78125 L 226.503906 485.664062 L 240.621094 499.78125 L 226.503906 513.894531 L 212.390625 499.78125 "/>
    <path style="fill:none;stroke-width:1.76443;stroke-linecap:butt;stroke-linejoin:miter;stroke:rgb(0%,0%,0%);stroke-opacity:1;stroke-miterlimit:10;" d="M 2123.90625 2922.1875 L 2265.039062 3063.359375 L 2406.210938 2922.1875 L 2265.039062 2781.054688 Z M 2123.90625 2922.1875 " transform="matrix(0.1,0,0,-0.1,0,792)"/>
    <path style=" stroke:none;fill-rule:evenodd;fill:rgb(69.921875%,69.921875%,69.921875%);fill-opacity:1;" d="M 212.390625 499.78125 L 212.390625 520.953125 L 226.503906 535.070312 L 226.503906 513.894531 L 212.390625 499.78125 "/>
    <path style="fill:none;stroke-width:1.76443;stroke-linecap:butt;stroke-linejoin:miter;stroke:rgb(0%,0%,0%);stroke-opacity:1;stroke-miterlimit:10;" d="M 2123.90625 2922.1875 L 2123.90625 2710.46875 L 2265.039062 2569.296875 L 2265.039062 2781.054688 Z M 2123.90625 2922.1875 " transform="matrix(0.1,0,0,-0.1,0,792)"/>
    <path style=" stroke:none;fill-rule:evenodd;fill:rgb(69.921875%,69.921875%,69.921875%);fill-opacity:1;" d="M 240.621094 499.78125 L 240.621094 520.953125 L 226.503906 535.070312 L 226.503906 513.894531 L 240.621094 499.78125 "/>
    <path style="fill:none;stroke-width:1.76443;stroke-linecap:butt;stroke-linejoin:miter;stroke:rgb(0%,0%,0%);stroke-opacity:1;stroke-miterlimit:10;" d="M 2406.210938 2922.1875 L 2406.210938 2710.46875 L 2265.039062 2569.296875 L 2265.039062 2781.054688 Z M 2406.210938 2922.1875 " transform="matrix(0.1,0,0,-0.1,0,792)"/>
    <path style=" stroke:none;fill-rule:evenodd;fill:rgb(69.921875%,69.921875%,69.921875%);fill-opacity:1;" d="M 240.621094 499.78125 L 254.734375 485.664062 L 268.851562 499.78125 L 254.734375 513.894531 L 240.621094 499.78125 "/>
    <path style="fill:none;stroke-width:1.76443;stroke-linecap:butt;stroke-linejoin:miter;stroke:rgb(0%,0%,0%);stroke-opacity:1;stroke-miterlimit:10;" d="M 2406.210938 2922.1875 L 2547.34375 3063.359375 L 2688.515625 2922.1875 L 2547.34375 2781.054688 Z M 2406.210938 2922.1875 " transform="matrix(0.1,0,0,-0.1,0,792)"/>
    <path style=" stroke:none;fill-rule:evenodd;fill:rgb(69.921875%,69.921875%,69.921875%);fill-opacity:1;" d="M 240.621094 499.78125 L 240.621094 520.953125 L 254.734375 535.070312 L 254.734375 513.894531 L 240.621094 499.78125 "/>
    <path style="fill:none;stroke-width:1.76443;stroke-linecap:butt;stroke-linejoin:miter;stroke:rgb(0%,0%,0%);stroke-opacity:1;stroke-miterlimit:10;" d="M 2406.210938 2922.1875 L 2406.210938 2710.46875 L 2547.34375 2569.296875 L 2547.34375 2781.054688 Z M 2406.210938 2922.1875 " transform="matrix(0.1,0,0,-0.1,0,792)"/>
    <path style=" stroke:none;fill-rule:evenodd;fill:rgb(69.921875%,69.921875%,69.921875%);fill-opacity:1;" d="M 268.851562 499.78125 L 268.851562 520.953125 L 254.734375 535.070312 L 254.734375 513.894531 L 268.851562 499.78125 "/>
    <path style="fill:none;stroke-width:1.76443;stroke-linecap:butt;stroke-linejoin:miter;stroke:rgb(0%,0%,0%);stroke-opacity:1;stroke-miterlimit:10;" d="M 2688.515625 2922.1875 L 2688.515625 2710.46875 L 2547.34375 2569.296875 L 2547.34375 2781.054688 Z M 2688.515625 2922.1875 " transform="matrix(0.1,0,0,-0.1,0,792)"/>
    <path style=" stroke:none;fill-rule:evenodd;fill:rgb(69.921875%,69.921875%,69.921875%);fill-opacity:1;" d="M 268.851562 471.550781 L 282.964844 457.433594 L 297.082031 471.550781 L 282.964844 485.664062 L 268.851562 471.550781 "/>
    <path style="fill:none;stroke-width:1.76443;stroke-linecap:butt;stroke-linejoin:miter;stroke:rgb(0%,0%,0%);stroke-opacity:1;stroke-miterlimit:10;" d="M 2688.515625 3204.492188 L 2829.648438 3345.664062 L 2970.820312 3204.492188 L 2829.648438 3063.359375 Z M 2688.515625 3204.492188 " transform="matrix(0.1,0,0,-0.1,0,792)"/>
    <path style=" stroke:none;fill-rule:evenodd;fill:rgb(69.921875%,69.921875%,69.921875%);fill-opacity:1;" d="M 268.851562 471.550781 L 268.851562 492.722656 L 282.964844 506.839844 L 282.964844 485.664062 L 268.851562 471.550781 "/>
    <path style="fill:none;stroke-width:1.76443;stroke-linecap:butt;stroke-linejoin:miter;stroke:rgb(0%,0%,0%);stroke-opacity:1;stroke-miterlimit:10;" d="M 2688.515625 3204.492188 L 2688.515625 2992.773438 L 2829.648438 2851.601562 L 2829.648438 3063.359375 Z M 2688.515625 3204.492188 " transform="matrix(0.1,0,0,-0.1,0,792)"/>
    <path style=" stroke:none;fill-rule:evenodd;fill:rgb(69.921875%,69.921875%,69.921875%);fill-opacity:1;" d="M 297.082031 471.550781 L 297.082031 492.722656 L 282.964844 506.839844 L 282.964844 485.664062 L 297.082031 471.550781 "/>
    <path style="fill:none;stroke-width:1.76443;stroke-linecap:butt;stroke-linejoin:miter;stroke:rgb(0%,0%,0%);stroke-opacity:1;stroke-miterlimit:10;" d="M 2970.820312 3204.492188 L 2970.820312 2992.773438 L 2829.648438 2851.601562 L 2829.648438 3063.359375 Z M 2970.820312 3204.492188 " transform="matrix(0.1,0,0,-0.1,0,792)"/>
    <path style=" stroke:none;fill-rule:evenodd;fill:rgb(69.921875%,69.921875%,69.921875%);fill-opacity:1;" d="M 297.082031 471.550781 L 311.195312 457.433594 L 325.3125 471.550781 L 311.195312 485.664062 L 297.082031 471.550781 "/>
    <path style="fill:none;stroke-width:1.76443;stroke-linecap:butt;stroke-linejoin:miter;stroke:rgb(0%,0%,0%);stroke-opacity:1;stroke-miterlimit:10;" d="M 2970.820312 3204.492188 L 3111.953125 3345.664062 L 3253.125 3204.492188 L 3111.953125 3063.359375 Z M 2970.820312 3204.492188 " transform="matrix(0.1,0,0,-0.1,0,792)"/>
    <path style=" stroke:none;fill-rule:evenodd;fill:rgb(69.921875%,69.921875%,69.921875%);fill-opacity:1;" d="M 297.082031 471.550781 L 297.082031 492.722656 L 311.195312 506.839844 L 311.195312 485.664062 L 297.082031 471.550781 "/>
    <path style="fill:none;stroke-width:1.76443;stroke-linecap:butt;stroke-linejoin:miter;stroke:rgb(0%,0%,0%);stroke-opacity:1;stroke-miterlimit:10;" d="M 2970.820312 3204.492188 L 2970.820312 2992.773438 L 3111.953125 2851.601562 L 3111.953125 3063.359375 Z M 2970.820312 3204.492188 " transform="matrix(0.1,0,0,-0.1,0,792)"/>
    <path style=" stroke:none;fill-rule:evenodd;fill:rgb(69.921875%,69.921875%,69.921875%);fill-opacity:1;" d="M 325.3125 471.550781 L 325.3125 492.722656 L 311.195312 506.839844 L 311.195312 485.664062 L 325.3125 471.550781 "/>
    <path style="fill:none;stroke-width:1.76443;stroke-linecap:butt;stroke-linejoin:miter;stroke:rgb(0%,0%,0%);stroke-opacity:1;stroke-miterlimit:10;" d="M 3253.125 3204.492188 L 3253.125 2992.773438 L 3111.953125 2851.601562 L 3111.953125 3063.359375 Z M 3253.125 3204.492188 " transform="matrix(0.1,0,0,-0.1,0,792)"/>
    <path style=" stroke:none;fill-rule:evenodd;fill:rgb(69.921875%,69.921875%,69.921875%);fill-opacity:1;" d="M 353.542969 471.550781 L 367.65625 457.433594 L 381.773438 471.550781 L 367.65625 485.664062 L 353.542969 471.550781 "/>
    <path style="fill:none;stroke-width:1.76443;stroke-linecap:butt;stroke-linejoin:miter;stroke:rgb(0%,0%,0%);stroke-opacity:1;stroke-miterlimit:10;" d="M 3535.429688 3204.492188 L 3676.5625 3345.664062 L 3817.734375 3204.492188 L 3676.5625 3063.359375 Z M 3535.429688 3204.492188 " transform="matrix(0.1,0,0,-0.1,0,792)"/>
    <path style=" stroke:none;fill-rule:evenodd;fill:rgb(69.921875%,69.921875%,69.921875%);fill-opacity:1;" d="M 353.542969 471.550781 L 353.542969 492.722656 L 367.65625 506.839844 L 367.65625 485.664062 L 353.542969 471.550781 "/>
    <path style="fill:none;stroke-width:1.76443;stroke-linecap:butt;stroke-linejoin:miter;stroke:rgb(0%,0%,0%);stroke-opacity:1;stroke-miterlimit:10;" d="M 3535.429688 3204.492188 L 3535.429688 2992.773438 L 3676.5625 2851.601562 L 3676.5625 3063.359375 Z M 3535.429688 3204.492188 " transform="matrix(0.1,0,0,-0.1,0,792)"/>
    <path style=" stroke:none;fill-rule:evenodd;fill:rgb(69.921875%,69.921875%,69.921875%);fill-opacity:1;" d="M 381.773438 471.550781 L 381.773438 492.722656 L 367.65625 506.839844 L 367.65625 485.664062 L 381.773438 471.550781 "/>
    <path style="fill:none;stroke-width:1.76443;stroke-linecap:butt;stroke-linejoin:miter;stroke:rgb(0%,0%,0%);stroke-opacity:1;stroke-miterlimit:10;" d="M 3817.734375 3204.492188 L 3817.734375 2992.773438 L 3676.5625 2851.601562 L 3676.5625 3063.359375 Z M 3817.734375 3204.492188 " transform="matrix(0.1,0,0,-0.1,0,792)"/>
    <path style=" stroke:none;fill-rule:evenodd;fill:rgb(0%,0%,100%);fill-opacity:1;" d="M 367.65625 485.664062 L 367.65625 506.839844 L 353.542969 520.953125 L 353.542969 499.78125 L 367.65625 485.664062 "/>
    <path style="fill:none;stroke-width:1.76443;stroke-linecap:butt;stroke-linejoin:miter;stroke:rgb(0%,0%,0%);stroke-opacity:1;stroke-miterlimit:10;" d="M 3676.5625 3063.359375 L 3676.5625 2851.601562 L 3535.429688 2710.46875 L 3535.429688 2922.1875 Z M 3676.5625 3063.359375 " transform="matrix(0.1,0,0,-0.1,0,792)"/>
    <path style=" stroke:none;fill-rule:evenodd;fill:rgb(0%,0%,100%);fill-opacity:1;" d="M 339.429688 485.664062 L 339.429688 506.839844 L 353.542969 520.953125 L 353.542969 499.78125 L 339.429688 485.664062 "/>
    <path style="fill:none;stroke-width:1.76443;stroke-linecap:butt;stroke-linejoin:miter;stroke:rgb(0%,0%,0%);stroke-opacity:1;stroke-miterlimit:10;" d="M 3394.296875 3063.359375 L 3394.296875 2851.601562 L 3535.429688 2710.46875 L 3535.429688 2922.1875 Z M 3394.296875 3063.359375 " transform="matrix(0.1,0,0,-0.1,0,792)"/>
    <path style=" stroke:none;fill-rule:evenodd;fill:rgb(100%,0%,0%);fill-opacity:1;" d="M 339.429688 485.664062 L 353.542969 471.550781 L 367.65625 485.664062 L 353.542969 499.78125 L 339.429688 485.664062 "/>
    <path style="fill:none;stroke-width:1.76443;stroke-linecap:butt;stroke-linejoin:miter;stroke:rgb(0%,0%,0%);stroke-opacity:1;stroke-miterlimit:10;" d="M 3394.296875 3063.359375 L 3535.429688 3204.492188 L 3676.5625 3063.359375 L 3535.429688 2922.1875 Z M 3394.296875 3063.359375 " transform="matrix(0.1,0,0,-0.1,0,792)"/>
    <path style=" stroke:none;fill-rule:evenodd;fill:rgb(69.921875%,69.921875%,69.921875%);fill-opacity:1;" d="M 325.3125 499.78125 L 339.429688 485.664062 L 353.542969 499.78125 L 339.429688 513.894531 L 325.3125 499.78125 "/>
    <path style="fill:none;stroke-width:1.76443;stroke-linecap:butt;stroke-linejoin:miter;stroke:rgb(0%,0%,0%);stroke-opacity:1;stroke-miterlimit:10;" d="M 3253.125 2922.1875 L 3394.296875 3063.359375 L 3535.429688 2922.1875 L 3394.296875 2781.054688 Z M 3253.125 2922.1875 " transform="matrix(0.1,0,0,-0.1,0,792)"/>
    <path style=" stroke:none;fill-rule:evenodd;fill:rgb(69.921875%,69.921875%,69.921875%);fill-opacity:1;" d="M 325.3125 499.78125 L 325.3125 520.953125 L 339.429688 535.070312 L 339.429688 513.894531 L 325.3125 499.78125 "/>
    <path style="fill:none;stroke-width:1.76443;stroke-linecap:butt;stroke-linejoin:miter;stroke:rgb(0%,0%,0%);stroke-opacity:1;stroke-miterlimit:10;" d="M 3253.125 2922.1875 L 3253.125 2710.46875 L 3394.296875 2569.296875 L 3394.296875 2781.054688 Z M 3253.125 2922.1875 " transform="matrix(0.1,0,0,-0.1,0,792)"/>
    <path style=" stroke:none;fill-rule:evenodd;fill:rgb(69.921875%,69.921875%,69.921875%);fill-opacity:1;" d="M 353.542969 499.78125 L 353.542969 520.953125 L 339.429688 535.070312 L 339.429688 513.894531 L 353.542969 499.78125 "/>
    <path style="fill:none;stroke-width:1.76443;stroke-linecap:butt;stroke-linejoin:miter;stroke:rgb(0%,0%,0%);stroke-opacity:1;stroke-miterlimit:10;" d="M 3535.429688 2922.1875 L 3535.429688 2710.46875 L 3394.296875 2569.296875 L 3394.296875 2781.054688 Z M 3535.429688 2922.1875 " transform="matrix(0.1,0,0,-0.1,0,792)"/>
  </g>
</svg>